# Blender v2.83.0 OBJ File: 'casino01.blend'
# www.blender.org
o Cube
v 3.000000 0.050000 -2.000000
v 3.000000 -0.050000 -2.000000
v 3.000000 0.050000 2.000000
v 3.000000 -0.050000 2.000000
v -3.000000 0.050000 -2.000000
v -3.000000 -0.050000 -2.000000
v -3.000000 0.050000 2.000000
v -3.000000 -0.050000 2.000000
vt 1.000000 1.000000
vt 0.000000 0.000000
vt 1.000000 0.000000
vt 0.534200 0.591719
vt 0.562622 0.689846
vt 0.534200 0.689846
vt 0.567545 0.480556
vt 0.610711 0.437391
vt 0.610711 0.480556
vt 0.494222 0.485383
vt 0.556454 0.423151
vt 0.556454 0.485383
vt 0.590848 0.668349
vt 0.652848 0.606349
vt 0.652848 0.668349
vt 0.925115 0.944677
vt 0.962906 0.906886
vt 0.962906 0.944677
vt 0.000000 1.000000
vt 0.562622 0.591719
vt 0.567545 0.437391
vt 0.494222 0.423151
vt 0.590848 0.606349
vt 0.925115 0.906886
vn 0.0000 1.0000 0.0000
vn 0.0000 0.0000 1.0000
vn -1.0000 0.0000 0.0000
vn 0.0000 -1.0000 0.0000
vn 1.0000 0.0000 0.0000
vn 0.0000 0.0000 -1.0000
s off
f 5/1/1 3/2/1 1/3/1
f 3/4/2 8/5/2 4/6/2
f 7/7/3 6/8/3 8/9/3
f 2/10/4 8/11/4 6/12/4
f 1/13/5 4/14/5 2/15/5
f 5/16/6 2/17/6 6/18/6
f 5/1/1 7/19/1 3/2/1
f 3/4/2 7/20/2 8/5/2
f 7/7/3 5/21/3 6/8/3
f 2/10/4 4/22/4 8/11/4
f 1/13/5 3/23/5 4/14/5
f 5/16/6 1/24/6 2/17/6
