# Blender v2.83.0 OBJ File: 'casino01.blend'
# www.blender.org
mtllib casino02.mtl
o Cube
v 2.000000 0.050000 -4.000000
v 2.000000 -0.050000 -4.000000
v 2.000000 0.050000 4.000000
v 2.000000 -0.050000 4.000000
v -2.000000 0.050000 -4.000000
v -2.000000 -0.050000 -4.000000
v -2.000000 0.050000 4.000000
v -2.000000 -0.050000 4.000000
vt 1.000000 0.000000
vt 1.000000 1.000000
vt 0.000000 1.000000
vt 0.000000 0.000000
vt 0.705310 0.948188
vt 0.705310 0.850061
vt 0.733731 0.850061
vt 0.733731 0.948188
vt 0.826458 0.833624
vt 0.783292 0.833624
vt 0.783292 0.790459
vt 0.826458 0.790459
vt 0.816838 0.959011
vt 0.754606 0.959011
vt 0.754606 0.896778
vt 0.816838 0.896778
vt 0.913232 0.827660
vt 0.851232 0.827660
vt 0.851232 0.765661
vt 0.913232 0.765661
vt 0.962906 0.944677
vt 0.925115 0.944677
vt 0.925115 0.906886
vt 0.962906 0.906886
vn 0.0000 1.0000 0.0000
vn 0.0000 0.0000 1.0000
vn -1.0000 0.0000 0.0000
vn 0.0000 -1.0000 0.0000
vn 1.0000 0.0000 0.0000
vn 0.0000 0.0000 -1.0000
usemtl Material
s off
f 1/1/1 5/2/1 7/3/1 3/4/1
f 4/5/2 3/6/2 7/7/2 8/8/2
f 8/9/3 7/10/3 5/11/3 6/12/3
f 6/13/4 2/14/4 4/15/4 8/16/4
f 2/17/5 1/18/5 3/19/5 4/20/5
f 6/21/6 5/22/6 1/23/6 2/24/6
